<?xml version="1.0" encoding="UTF-8" standalone="no"?>
<!-- Created with Inkscape (http://www.inkscape.org/) -->

<svg
   width="241.30289mm"
   height="199.32811mm"
   viewBox="0 0 241.30289 199.32811"
   version="1.1"
   id="svg1"
   xml:space="preserve"
   inkscape:version="1.4.2 (ebf0e940d0, 2025-05-08)"
   sodipodi:docname="nuclearPlant-invert.svg"
   xmlns:inkscape="http://www.inkscape.org/namespaces/inkscape"
   xmlns:sodipodi="http://sodipodi.sourceforge.net/DTD/sodipodi-0.dtd"
   xmlns="http://www.w3.org/2000/svg"
   xmlns:svg="http://www.w3.org/2000/svg"><sodipodi:namedview
     id="namedview1"
     pagecolor="#ffffff"
     bordercolor="#000000"
     borderopacity="0.25"
     inkscape:showpageshadow="2"
     inkscape:pageopacity="0.0"
     inkscape:pagecheckerboard="0"
     inkscape:deskcolor="#d1d1d1"
     inkscape:document-units="mm"
     inkscape:zoom="0.79285915"
     inkscape:cx="418.10705"
     inkscape:cy="409.90887"
     inkscape:window-width="1920"
     inkscape:window-height="1141"
     inkscape:window-x="0"
     inkscape:window-y="0"
     inkscape:window-maximized="1"
     inkscape:current-layer="layer1" /><defs
     id="defs1" /><g
     inkscape:label="Ebene 1"
     inkscape:groupmode="layer"
     id="layer1"
     transform="translate(15.6133,-40.456389)"><rect
       style="fill:#000000;fill-opacity:1;stroke-width:1.5"
       id="rect1"
       width="241.60449"
       height="199.5573"
       x="-15.6133"
       y="40.45639"
       ry="1.0007739" /><path
       style="fill:#ffffff"
       d="m 86.386459,239.53657 c -44.450392,-1.25282 -94.5683941,-7.8893 -98.955812,-13.10346 -0.784329,-0.93212 -0.71032,1.06465 -0.75706,-20.42559 -0.03404,-15.65092 -0.04968,-16.11856 -0.548653,-16.40416 -2.056735,-1.17725 -2.295829,-2.63596 -0.677011,-4.13045 1.559587,-1.4398 1.64479,-6.62618 0.132291,-8.05265 -1.495703,-1.41063 -0.697562,-3.9949 1.44933,-4.69272 0.305005,-0.0991 0.421843,-0.82094 0.531256,-3.28201 0.30773,-6.92185 7.6218406,-9.16219 9.6801909,-2.96508 0.5776114,1.73903 1.97835162,1.83542 2.24904811,0.15477 0.2927336,-1.81747 1.06547178,-2.23685 2.09746629,-1.13835 0.8289697,0.8824 1.1964167,0.83366 1.4958091,-0.19843 0.2312874,-0.79732 0.3318444,-0.8599 1.3816434,-0.8599 1.3282,0 1.3803034,-0.1309 6.2479902,-15.69672 8.089522,-25.86855 9.452864,-41.25081 5.4254,-61.213474 -1.365387,-6.767725 -1.039653,-7.294749 5.689781,-9.205827 4.033098,-1.145351 3.717722,-0.808519 3.624563,-3.871153 -0.320258,-10.528498 8.629844,-17.659381 19.854523,-15.818845 0.814315,0.133525 1.019125,0.07521 1.156811,-0.329404 2.788978,-8.195786 10.812368,-13.235257 18.701894,-11.746611 1.720782,0.324689 1.720782,0.324689 3.665453,-1.15886 12.65475,-9.654043 27.449636,-4.48608 27.585135,9.635692 0.01968,2.050736 0.09719,2.512154 0.420992,2.506009 0.218282,-0.0041 1.289844,-0.104361 2.38125,-0.222707 5.33737,-0.578755 10.55234,2.146425 12.18867,6.369415 3.56297,9.195208 -3.90363,18.603516 -15.266427,19.236507 -1.249637,0.06961 -2.307265,0.163095 -2.350285,0.207735 -0.04302,0.04464 -0.610498,0.805605 -1.261063,1.691032 -2.566553,3.493111 -7.799346,5.739828 -12.275284,5.270435 -2.008437,-0.210626 -1.978839,-0.253426 -2.560777,3.70303 -1.227119,8.342876 -1.334183,23.416276 -0.174559,24.575896 0.144544,0.14455 1.272538,-0.73583 2.823631,-2.20378 5.891054,-5.57528 13.431615,-9.27279 21.694394,-10.63783 3.85677,-0.63716 3.94075,-0.67772 4.18241,-2.02028 0.0973,-0.54051 0.38932,-1.39948 0.64895,-1.9088 0.33434,-0.65591 0.52799,-1.888434 0.66386,-4.225238 0.48417,-8.327575 7.02608,-7.765007 7.03084,0.604614 8.5e-4,1.506601 0.13381,2.839744 0.31664,3.175004 0.17335,0.31785 0.51251,1.29229 0.7537,2.16541 0.49677,1.79838 0.18947,1.62606 4.48738,2.51627 15.5777,3.22654 27.67793,14.76926 31.3409,29.8969 0.75553,3.12024 0.83192,3.24298 2.29059,3.68001 1.58432,0.47467 1.49126,0.88892 3.43705,-15.30034 0.62014,-5.15966 0.9139,-4.73148 -3.33416,-4.85988 -7.35267,-0.22224 -10.26194,-1.27169 -6.75472,-2.4366 7.35522,-2.44301 11.09454,-4.46908 11.28973,-6.11708 0.19886,-1.67913 0.0932,-1.76122 -3.33279,-2.58871 -3.20902,-0.77508 -3.1866,-0.78139 -3.1866,0.89637 0,1.69932 -0.37487,2.64744 -1.04674,2.64744 -0.69481,0 -0.92179,-0.93007 -0.71344,-2.92345 0.17601,-1.68397 0.0977,-1.81395 -1.25943,-2.08912 -1.16782,-0.23679 -1.32493,-1.47354 -0.2391,-1.88222 0.40984,-0.15426 1.16266,-0.68595 1.67293,-1.18154 0.75584,-0.7341 1.41774,-1.02697 3.57188,-1.58042 5.86054,-1.50573 5.87301,-1.51345 7.26521,-4.498459 1.91713,-4.110497 2.13057,-4.127883 4.00006,-0.325833 1.70674,3.471072 1.2578,3.130072 5.84581,4.440352 3.00293,0.8576 4.39246,1.39957 5.52185,2.15375 0.83003,0.55427 1.63023,1.00777 1.77821,1.00777 0.14798,0 0.34862,0.20732 0.44585,0.46071 0.20493,0.53403 -0.69272,1.39138 -1.45679,1.39138 -0.73452,0 -0.8929,0.47942 -0.82884,2.509 0.10662,3.37813 -1.31498,3.74899 -1.53871,0.40141 -0.15866,-2.37387 -0.12546,-2.35806 -3.34622,-1.59314 -3.32569,0.78985 -3.62181,1.02854 -3.397,2.73814 0.23484,1.78585 0.22431,1.7775 4.20753,3.33746 4.25654,1.667 3.98537,1.67099 10.01766,-0.14769 0.26072,-0.0786 0.99471,-1.18559 1.64613,-2.48263 1.67563,-3.33638 1.90205,-3.35334 3.33265,-0.24962 1.10369,2.39449 1.31084,2.55013 4.75766,3.57439 1.6205,0.48155 3.43969,1.21038 4.04263,1.61963 0.60294,0.40925 1.30461,0.82955 1.55927,0.934 0.74699,0.30638 0.57632,1.22815 -0.26458,1.42903 -1.25287,0.29929 -1.4428,0.60036 -1.25235,1.98512 0.19914,1.4479 -0.009,2.34906 -0.54211,2.34906 -0.55571,0 -0.91752,-0.87998 -0.91752,-2.23156 0,-1.14583 -0.0375,-1.20709 -0.72761,-1.18997 -6.6899,0.16596 -5.86475,3.36171 1.60283,6.20763 4.61072,1.75716 5.23378,2.32616 2.89509,2.64389 -2.28618,0.3106 -2.18281,0.19175 -2.18281,2.50973 0,2.14662 -0.24558,2.67919 -0.96146,2.08506 -0.31212,-0.25905 -0.38778,-0.75053 -0.31914,-2.0733 0.09,-1.73377 0.09,-1.73377 -2.22946,-1.81028 -2.90425,-0.0958 -2.76321,-0.78491 -1.54842,7.56528 1.21076,8.3225 0.0983,7.12431 8.51686,9.17306 9.0449,2.20117 8.06981,0.93449 8.31651,10.80338 0.21178,8.47152 0.24284,8.66108 1.33734,8.16239 0.90558,-0.41261 1.70443,0.19851 1.70443,1.30388 0,1.98384 1.01476,1.82516 2.09004,-0.32682 2.75315,-5.50994 8.95936,-3.02395 9.28825,3.72055 0.1281,2.62692 0.21407,3.0564 0.66197,3.30729 2.4263,1.35908 2.87125,3.10082 1.18891,4.65395 -1.20438,1.11188 -1.66611,6.372 -0.63196,7.19947 1.50086,1.20091 1.95488,1.80052 1.95488,2.58179 0,0.79382 -0.18774,1.04237 -1.88215,2.4918 -0.47986,0.41048 -0.4991,1.10978 -0.4991,18.13373 0,21.29466 0.63562,19.2848 -6.69607,21.17295 -29.18581,7.5163 -82.34977,11.77078 -130.225801,10.42142 z m 38.232291,-4.09 c 11.5159,-0.35718 12.51268,-0.45921 10.98021,-1.12392 -0.58209,-0.25248 -1.36574,-0.75349 -1.74145,-1.11336 -0.68311,-0.6543 -0.68311,-0.6543 -6.87917,-0.3412 -8.02639,0.4056 -36.773494,0.40881 -44.277404,0.005 -5.80219,-0.31228 -5.80219,-0.31228 -6.482292,0.33914 -0.374055,0.35827 -1.156351,0.85586 -1.738434,1.10575 -1.608444,0.6905 -0.632709,0.79395 10.847916,1.15004 16.334954,0.50667 22.371084,0.50338 39.290624,-0.0214 z m -51.743264,-3.66503 c 1.017078,-0.38669 1.088344,-42.75614 0.07234,-43.01114 -3.899698,-0.97876 -3.753503,-1.79265 -3.827645,21.30876 -0.07927,24.69902 -0.32909,23.25527 3.7553,21.70238 z m 68.082854,-21.28891 c 0.0536,-16.95675 -0.001,-21.45858 -0.26458,-21.62564 -0.43152,-0.27397 -3.40809,-0.27396 -3.83962,1e-5 -0.76233,0.48399 -0.30535,42.72075 0.46461,42.94161 3.72442,1.0683 3.56587,1.99686 3.63959,-21.31598 z m -75.706397,19.22779 c 0.581818,-0.38114 0.748137,-5.2719 0.189357,-5.5682 -6.222365,-3.29947 -42.537684,0.46932 -38.963736,4.04364 0.375163,0.3752 10.018149,0.79134 10.362309,0.44718 0.187752,-0.18775 0.448016,-0.16368 0.832764,0.077 0.508301,0.31798 9.759682,0.74689 22.25549,1.0318 1.455209,0.0332 3.181615,0.0834 3.836458,0.11165 0.654844,0.0282 1.324155,-0.0362 1.487358,-0.14307 z m 90.852217,-0.19112 c 7.36344,-0.15696 26.04819,-0.89855 26.86838,-1.06639 0.4503,-0.0922 0.59957,-0.45168 0.8797,-2.11879 0.5092,-3.03044 0.8625,-2.88585 -6.51811,-2.66745 -3.38625,0.1002 -10.53054,0.18791 -15.8762,0.19491 -17.56381,0.023 -17.13931,-0.0486 -17.05695,2.87633 0.0966,3.42908 -0.10275,3.20921 2.76741,3.05305 1.34941,-0.0734 5.37051,-0.19567 8.93577,-0.27166 z m -45.77291,-1.07329 c 14.33938,-4.33343 19.52646,-20.98938 9.98814,-32.0724 -12.07956,-14.03582 -35.123556,-5.55068 -35.123556,12.93302 0,12.84169 13.062247,22.78795 25.135416,19.13938 z m -8.99583,0.0249 c -17.190703,-3.68654 -21.701057,-25.62885 -7.281063,-35.42144 12.575973,-8.54032 29.528623,-0.29262 30.743183,14.957 0.99989,12.55435 -11.10665,23.11407 -23.46212,20.46444 z m 8.35371,-2.41032 c 9.05624,-2.35748 14.82625,-12.105 12.44181,-21.01846 -4.24322,-15.86186 -25.865244,-17.86409 -32.858075,-3.04271 -6.249781,13.24648 6.090859,27.79029 20.416265,24.06117 z m -7.16309,0.15416 c -6.574342,-0.93014 -12.612375,-6.38749 -14.128212,-12.7695 -4.022294,-16.93476 16.525442,-28.44004 28.947082,-16.20833 11.69887,11.51999 1.58438,31.29856 -14.81887,28.97783 z m -1.90197,-7.91302 c 3.55514,-5.95259 5.71163,-6.02147 9.23708,-0.29502 2.85503,4.63746 2.62692,4.3905 3.66008,3.96255 2.66791,-1.10509 5.99077,-6.10783 6.62574,-9.97541 0.44428,-2.70609 0.43607,-2.71219 -3.69656,-2.74455 -5.53721,-0.0434 -6.1315,-0.17071 -6.55746,-1.40504 -0.19631,-0.56888 -0.65425,-1.42414 -1.01765,-1.90058 -0.8451,-1.10799 -1.00625,-0.5826 1.63361,-5.32604 2.29433,-4.12258 2.29433,-4.12258 1.70895,-4.59659 -2.61567,-2.11804 -9.55857,-2.39413 -13.220889,-0.52576 -1.832115,0.93468 -1.84308,0.85879 0.759315,5.25504 2.560574,4.32559 2.626634,4.50931 1.868184,5.1957 -0.27759,0.25121 -0.75084,1.0289 -1.05167,1.7282 -0.647822,1.50591 -0.843814,1.58084 -4.264466,1.63048 -5.10308,0.0741 -6.206075,0.26644 -6.301804,1.09913 -0.363607,3.16279 2.426882,8.26116 6.008293,10.97747 1.964404,1.48989 1.82424,1.58354 4.609247,-3.07958 z m -4.593734,2.78503 c -6.730886,-5.28402 -7.608975,-11.17052 -1.703014,-11.41659 5.051596,-0.21048 5.951628,-0.33935 6.119898,-0.87625 0.38262,-1.22084 1.01253,-2.45938 1.45401,-2.85891 0.76589,-0.69313 0.64563,-1.02907 -1.87601,-5.24061 -2.580201,-4.30935 -2.547894,-4.15926 -1.058743,-4.91897 2.835743,-1.44669 8.097023,-1.70968 11.116013,-0.55566 2.73085,1.04388 2.72179,0.70178 0.14218,5.37225 -2.58924,4.68789 -2.53469,4.48098 -1.49397,5.66629 0.42938,0.48905 0.86114,1.31794 0.95945,1.842 0.23101,1.23139 0.10901,1.20087 5.59933,1.40086 4.69906,0.17117 4.69906,0.17117 4.63662,1.61391 -0.16323,3.77162 -3.27902,8.91488 -6.41851,10.59508 -0.79028,0.42294 -0.89238,0.30358 -3.73632,-4.36784 -3.34824,-5.49979 -5.74699,-5.25081 -9.49419,0.98547 -2.636099,4.38713 -2.382572,4.22242 -4.246744,2.75897 z m 10.835184,-8.75507 c 2.26516,-1.17136 2.36969,-4.66138 0.17961,-5.99689 -3.36835,-2.05402 -7.00884,2.37224 -4.32697,5.26092 1.06921,1.15166 2.76245,1.45214 4.14736,0.73597 z m -3.44046,-0.48621 c -2.56624,-1.72692 -1.33675,-5.74502 1.75791,-5.74502 0.9164,0 1.35431,0.16963 2.07778,0.80484 2.99265,2.62758 -0.53005,7.16466 -3.83569,4.94018 z M 23.216988,224.499 c 0.149673,-8.40749 -0.173236,-10.57324 -1.589995,-10.66408 -1.611229,-0.10331 -1.503357,-0.53307 -1.752997,6.9839 -0.223794,6.73867 -0.16951,7.15252 0.961844,7.33294 2.344968,0.37395 2.308467,0.42995 2.381148,-3.65276 z m 166.665112,3.38626 c 0.43927,-0.16857 0.38139,-8.72132 -0.086,-12.71282 -0.2104,-1.79663 -2.58255,-2.23825 -2.84241,-0.52916 -0.24096,1.58476 -0.44298,13.3188 -0.23296,13.53101 0.21054,0.21273 2.36781,0.0155 3.16141,-0.28903 z M 16.398466,225.6458 c 0.537252,-2.34059 0.468385,-2.39962 -2.70768,-2.32085 -1.490815,0.037 -3.039541,-0.0245 -3.441613,-0.13654 -0.4513525,-0.1258 -0.8692522,-0.0891 -1.0922959,0.0961 -0.2618254,0.2173 -0.5660432,0.22196 -1.1052973,0.0169 -0.6308385,-0.23984 -5.7099631,-0.54303 -10.5651159,-0.63065 -1.9269745,-0.0348 -2.2062736,1.47328 -0.3646982,1.96916 3.82696801,1.0305 8.0819811,1.67572 17.8271973,2.7033 1.018719,0.10742 1.041297,0.081 1.449503,-1.69741 z m 73.983036,1.58874 c 0.687461,-1.11234 -1.769033,-2.15229 -4.668062,-1.97622 -3.355987,0.20383 -3.773713,0.0809 -5.332583,-1.56897 -1.051447,-1.11284 -1.23641,-1.2116 -1.752157,-0.93558 -0.84247,0.45087 -1.549035,1.60353 -1.138483,1.85727 0.243492,0.15048 0.222196,0.28231 -0.08707,0.53898 -0.489761,0.40646 -0.547292,2.02732 -0.07867,2.21641 0.741507,0.29921 12.866283,0.17673 13.057022,-0.13189 z m 42.655818,-0.70235 c 0.1407,-1.46582 -0.28745,-1.71581 -2.58572,-1.50969 -1.09802,0.0985 -3.54421,0.1665 -5.43598,0.15117 -3.61978,-0.0293 -4.89479,0.40898 -4.89479,1.68271 0,1.12518 12.80823,0.8037 12.91649,-0.32419 z m 63.54809,0.74355 c 1.09141,-0.14819 3.58745,-0.45034 5.54676,-0.67146 3.24585,-0.36631 8.3343,-1.29363 10.92204,-1.99044 1.29194,-0.34788 1.46237,-1.99659 0.19995,-1.93437 -0.3638,0.0179 -3.60266,0.18106 -7.19746,0.36251 -3.5948,0.18145 -6.96846,0.24878 -7.49701,0.14962 -1.37388,-0.25774 -5.08901,0.10721 -5.24561,0.5153 -0.0703,0.18313 -0.0245,0.79346 0.1016,1.35626 0.12616,0.56281 0.29792,1.35072 0.38168,1.7509 0.17369,0.82977 0.13009,0.82255 2.78805,0.46168 z M -6.085411,206.22709 c 0,-17.31459 0,-17.31459 -1.8520832,-17.31459 -1.8520832,0 -1.8520832,0 -1.8249734,9.98802 0.042451,15.64022 0.2885051,23.24977 0.7672512,23.72827 0.4567029,0.45647 2.4153839,1.19884 2.711368,1.02766 0.1091406,-0.0631 0.1984374,-7.90633 0.1984374,-17.42936 z m 223.814081,17.13468 c 1.99961,-0.99758 1.87362,0.11087 2.05958,-18.11994 0.16657,-16.32933 0.16657,-16.32933 -1.72855,-16.32933 -1.63375,0 -3.27548,33.19186 -1.71873,34.74861 0.24116,0.24116 0.35237,0.21717 1.3877,-0.29934 z m -60.36774,-2.5129 c 1.16904,-1.11391 1.13435,-1.21609 -1.08824,-3.2053 -2.04501,-1.83027 -5.98936,-0.44727 -5.98936,2.10003 0,2.0436 5.23488,2.8611 7.0776,1.10527 z M 38.705561,220.67759 C 39.737632,219.71127 37.267949,215.9 35.609714,215.9 c -0.771749,0 -3.920241,3.62585 -3.625963,4.17571 1.082686,2.02302 4.84423,2.35983 6.72181,0.60188 z m 9.779338,0.0982 c 1.269877,-1.20361 1.324938,-1.02417 -1.008582,-3.28686 -1.830031,-1.77448 -5.93673,-0.19195 -5.93673,2.28775 0,1.96164 5.148393,2.70226 6.945312,0.99911 z m 9.858383,-0.11605 c 1.03609,-1.06106 1.03609,-1.06106 -0.799103,-2.91042 -2.253507,-2.27091 -2.239034,-2.27089 -4.485781,-0.007 -2.010123,2.02564 -2.010227,2.02696 -0.278789,3.50936 1.157563,0.99106 4.349428,0.65135 5.563673,-0.59215 z m 108.794638,0.2154 c 1.16057,-1.12487 1.15193,-1.15363 -0.96054,-3.19974 -2.00466,-1.94167 -6.10447,-0.53622 -6.10447,2.09266 0,1.92975 5.3511,2.76826 7.06501,1.10708 z m 9.72683,0.0245 c 1.23308,-1.08266 1.22173,-1.12583 -0.8436,-3.2071 -2.164,-2.18071 -1.91861,-2.17989 -4.10149,-0.0137 -3.2048,3.18024 1.50071,6.24503 4.94509,3.22083 z M 15.087318,220.65643 c 0.681451,-0.68145 0.533659,-0.95496 -1.709686,-3.16403 -1.786518,-1.75923 -6.9858578,1.05132 -5.3299069,2.88112 0.8025319,0.88679 6.2180729,1.10443 7.0395929,0.28291 z m 187.030052,-0.29267 c 0.57059,-0.53159 -2.50771,-4.46376 -3.49446,-4.46376 -0.2884,0 -3.33786,2.90306 -3.63743,3.46281 -0.82984,1.55057 5.5768,2.44974 7.13189,1.00095 z m 9.74773,-0.10983 c 0.65725,-0.20667 0.29794,-0.82879 -1.52136,-2.63414 -1.68762,-1.67469 -5.55625,-0.19666 -5.55625,2.1228 0,0.84828 4.88394,1.20114 7.07761,0.51134 z m -79.20941,-1.34942 c 2.49395,-2.98834 -0.15805,-7.2568 -2.85777,-4.59966 -2.09943,2.06631 -2.09124,1.70667 -0.0898,3.94225 1.75622,1.96168 1.84293,1.98102 2.94756,0.65741 z m -51.77807,-0.65039 c 1.682158,-1.76356 0.488811,-5.52912 -1.75224,-5.52912 -1.999093,0 -2.94976,4.00547 -1.404025,5.91561 1.258482,1.55517 1.310288,1.54883 3.156265,-0.38649 z m -72.1611442,-1.4132 c 2.1798212,-2.19447 2.2094302,-2.53788 0.2639903,-3.06173 -0.6604609,-0.17784 -1.3443293,-0.6607 -1.9684668,-1.38986 -0.956403,-1.11734 -0.956403,-1.11734 -2.7049441,0.68346 -1.748541,1.80081 -1.748541,1.80081 0.2067284,3.76922 2.3519329,2.36773 1.8495473,2.36786 4.2026922,-10e-4 z m 35.7335272,-2.11829 c 0,-0.44263 -3.527576,-3.84972 -3.985861,-3.84972 -2.786821,0 -3.990677,4.11798 -1.817263,6.21624 1.691479,1.63298 5.803124,-0.0437 5.803124,-2.36652 z m 108.743747,0.0338 c 0,-0.44036 -3.52879,-3.8835 -3.98011,-3.8835 -0.76962,0 -4.01179,3.63743 -3.72281,4.17665 1.89777,3.54111 7.70292,3.32018 7.70292,-0.29315 z m 7.84259,2.18587 c 2.31987,-2.38819 2.30732,-2.1211 0.1995,-4.2452 -2.1993,-2.21628 -1.94791,-2.21352 -4.13285,-0.0453 -2.19993,2.18308 -2.19987,2.16307 -0.0137,4.36609 2.15268,2.1693 1.75912,2.17684 3.94708,-0.0756 z m 21.4673,-2.53745 c -1.02839,-1.02839 -7.34948,-0.66215 -7.34948,0.42582 0,2.58326 3.8612,3.95076 5.76883,2.04312 1.8956,-1.89559 1.99646,-2.05313 1.58065,-2.46894 z m -149.591573,2.29926 c 2.61466,-2.70831 2.361186,-3.05471 -2.048611,-2.79963 -4.415736,0.25542 -4.527279,0.39986 -2.154988,2.79047 2.239093,2.25638 2.034524,2.25593 4.203599,0.009 z m 19.534941,0.0629 c 2.189904,-2.17313 2.191462,-1.98259 -0.03378,-4.13088 -1.932487,-1.86566 -5.846558,-0.48812 -5.846558,2.05767 0,2.55209 3.982735,3.95627 5.880338,2.07321 z m 9.789583,0 c 2.180711,-2.164 2.179889,-1.91862 0.01374,-4.1015 -2.195998,-2.21295 -2.268984,-2.21232 -4.268053,0.037 -2.017028,2.26952 -2.019961,2.18884 0.152078,4.1826 2.200625,2.01999 1.940089,2.02749 4.102239,-0.11809 z m 108.875559,0.13284 c 1.85712,-1.84062 0.32242,-6.02692 -2.20948,-6.02692 -0.31394,0 -3.80267,3.50713 -3.80267,3.82273 0,2.51787 4.15768,4.04217 6.01215,2.20419 z m 34.60139,-0.20608 c 1.83789,-1.85209 1.83789,-1.85209 0,-3.70417 -2.04066,-2.05642 -2.26007,-2.14605 -2.89206,-1.18151 -0.24166,0.36881 -1.02925,1.09435 -1.75022,1.61231 -1.65866,1.19164 -1.65897,1.18949 0.46799,3.33287 2.17153,2.1883 1.94044,2.19159 4.17429,-0.0595 z M 3.4990944,212.00449 c 2.0171817,-2.00173 -0.018897,-6.92563 -2.3483042,-5.67897 -3.0960011,1.65693 -3.5922159,3.54538 -1.48860995,5.66523 2.13907375,2.15559 1.68017505,2.15395 3.83691415,0.0137 z m 43.8870506,0.0156 c 2.022435,-1.9525 0.62489,-6.1743 -2.043881,-6.1743 -0.314195,0 -3.802677,3.50725 -3.802677,3.82314 0,2.48049 4.032757,4.10224 5.846558,2.35116 z m 9.823363,-0.0156 c 1.990091,-1.97484 0.58326,-6.15866 -2.070882,-6.15866 -2.497803,0 -3.883728,4.0405 -2.068233,6.02969 2.114903,2.31724 1.939455,2.31177 4.139115,0.12897 z m 8.246561,1.36032 c 0.377033,-0.98253 0.17218,-6.91541 -0.250902,-7.26654 -2.173931,-1.8042 -4.258472,3.73393 -2.181166,5.79485 2.042865,2.02674 2.185871,2.11328 2.432068,1.47169 z m 90.707601,-1.36032 c 1.97424,-1.95911 0.5899,-6.15866 -2.03015,-6.15866 -2.60883,0 -4.01412,4.11498 -2.08699,6.11114 2.14493,2.22177 1.92862,2.21927 4.11714,0.0475 z m 9.83114,-0.0418 c 2.15306,-2.16969 2.15061,-2.22024 -0.21731,-4.49404 -1.99474,-1.91545 -1.95249,-1.92091 -4.13548,0.53534 -1.64645,1.85255 -1.64645,1.85255 0.30383,3.81593 2.34099,2.35672 1.86851,2.34005 4.04896,0.14277 z m 44.40844,0.0418 c 1.91749,-1.9028 0.55612,-5.89408 -2.01039,-5.89408 -2.59263,0 -3.80109,3.89053 -1.82652,5.88034 2.13907,2.15559 1.68017,2.15395 3.83691,0.0137 z m -10.49852,-1.51643 c 1.02331,-1.0233 1.02331,-20.96116 0,-21.98446 -1.02366,-1.02366 -22.54831,-1.02366 -23.57197,0 -0.76126,0.76125 -1.05513,20.70131 -0.3187,21.62439 0.76031,0.95301 1.25595,0.99332 12.31515,1.00146 10.92609,0.008 10.92609,0.008 11.57552,-0.64139 z m -23.25968,-0.16352 c -0.96849,-0.76181 -1.12315,-20.72144 -0.16797,-21.67663 0.51237,-0.51236 0.88194,-0.52916 11.64167,-0.52916 13.96849,0 12.17083,-1.68042 12.17083,11.37708 0,9.96597 -0.0181,10.33684 -0.52917,10.84792 -0.84088,0.84087 -22.04433,0.82326 -23.11536,-0.0192 z m -95.709098,-1.72191 c 1.667483,-1.82449 0.63983,-5.27073 -1.604589,-5.38099 -2.047615,-0.1006 -3.119713,3.92666 -1.510164,5.67281 1.381947,1.49924 1.486811,1.48941 3.114753,-0.29182 z m 51.592888,0.54128 c 1.48997,-1.69698 0.69248,-5.94391 -1.11616,-5.94391 -0.50284,0 -3.08976,2.73139 -3.08976,3.26232 0,1.97598 3.09364,3.94841 4.20592,2.68159 z M 24.692933,208.07447 c 0.702516,-0.24216 1.333059,-0.58559 1.401204,-0.76317 0.143298,-0.37343 -2.947612,-5.7306 -3.481503,-6.03415 -0.862556,-0.49041 0.679435,-1.95993 1.99362,-1.89992 1.156103,0.0528 1.161386,0.0495 0.182203,-0.11195 -2.141573,-0.35322 -2.372068,-1.69002 -0.831448,-4.82214 1.852042,-3.76526 2.717082,-3.77706 5.213307,-0.0711 1.200489,1.78227 1.33048,1.59627 0.159608,-0.22838 -0.845475,-1.31756 -2.910524,-3.11449 -3.579199,-3.11449 -0.207893,0 -1.022818,1.36949 -1.880181,3.15966 -0.90868,1.89732 -1.671806,3.16735 -1.910123,3.1789 -0.231093,0.0112 -0.120571,0.15829 0.264583,0.35211 1.465847,0.73765 0.69068,3.09892 -1.017326,3.09892 -1.774169,0 -2.392931,-2.18172 -0.86953,-3.06591 0.625646,-0.36313 0.635877,-0.39165 0.100919,-0.28136 -0.375486,0.0774 -0.595313,-0.005 -0.595313,-0.22191 0,-1.18571 -2.647663,-5.95582 -3.305798,-5.95582 -1.302435,0 -4.632417,3.84587 -4.631493,5.34901 1.15e-4,0.18674 0.340443,-0.37965 0.756285,-1.25865 1.330711,-2.81284 3.806228,-4.53764 4.636526,-3.23047 2.307191,3.6323 2.591544,6.55644 0.692397,7.12024 -0.595447,0.17677 -0.577648,0.19153 0.178355,0.14795 1.338592,-0.0772 2.166946,1.11914 1.470514,2.12373 -1.605704,2.31621 -3.090846,5.61751 -2.70162,6.0054 1.157745,1.15378 5.144686,1.42296 7.754013,0.52351 z m -5.905195,-0.008 c -2.129983,-0.5723 -2.135891,-0.60116 -0.686163,-3.35144 2.428839,-4.60776 3.752716,-4.64908 6.382227,-0.1992 1.691714,2.86286 1.677791,2.92548 -0.793032,3.56664 -1.918647,0.49787 -3.003695,0.49433 -4.903032,-0.016 z m 23.803912,-1.28828 c 1.964861,-1.97806 1.964861,-1.97806 -0.07885,-4.02177 -2.043706,-2.0437 -2.043706,-2.0437 -3.889712,-0.21184 -2.258798,2.24149 -2.258335,2.21101 -0.06716,4.4191 2.148836,2.16543 1.67905,2.18702 4.035722,-0.18549 z m 9.84147,0.1716 c 2.205353,-2.20535 2.217116,-1.89991 -0.164258,-4.26539 -1.970724,-1.95757 -1.970724,-1.95757 -4.034896,0.0632 -2.064171,2.02075 -2.064171,2.02075 -0.08642,4.01471 2.388075,2.40765 2.078946,2.39413 4.285572,0.1875 z m 9.803471,0.0276 c 2.195278,-2.17846 2.205468,-1.92531 -0.172584,-4.2875 -1.924804,-1.91195 -4.072919,-1.21644 -5.717091,1.85108 -1.222415,2.28065 3.90795,4.40295 5.889675,2.43642 z m 88.458869,0.65436 c 2.87379,-3.07334 2.79399,-2.58943 0.7723,-4.68353 -2.109,-2.18455 -7.31469,-0.18727 -5.98545,2.29645 1.4317,2.67516 3.89085,3.80119 5.21315,2.38708 z m 10.52467,-0.70188 c 0.96976,-1.0045 1.7632,-1.90904 1.7632,-2.0101 0,-0.40047 -3.55447,-3.83646 -3.96875,-3.83646 -2.5195,0 -3.93769,3.85529 -2.09908,5.70625 2.36899,2.38491 2.14471,2.3776 4.30463,0.14031 z m 9.62744,0.18035 c 1.98144,-1.96383 0.61382,-6.02691 -2.02864,-6.02691 -2.68903,0 -3.95816,3.84669 -1.94009,5.88034 2.15452,2.17116 1.9342,2.16302 3.96873,0.14657 z M 3.5057344,202.11353 c 2.1944923,-1.97279 2.1980284,-2.13811 0.089046,-4.16326 -1.9179037,-1.84167 -5.7114421,-0.47344 -5.7114421,2.05996 0,2.5163 3.6458311,3.88018 5.6223961,2.1033 z m 43.9141906,-0.16321 c 1.893898,-1.87938 0.511086,-5.89407 -2.030144,-5.89407 -0.346938,0 -3.850194,3.47826 -3.850194,3.82272 0,2.55055 3.983439,3.95372 5.880338,2.07135 z m 9.789583,0 c 1.893898,-1.87938 0.511086,-5.89407 -2.030144,-5.89407 -0.346939,0 -3.850195,3.47826 -3.850195,3.82272 0,2.55055 3.983439,3.95372 5.880339,2.07135 z m 8.349176,-1.59996 c 0.11169,-4.87015 -0.125327,-5.09351 -2.680366,-2.52588 -2.145507,2.15608 -2.146937,1.92917 0.02596,4.11885 2.445073,2.46395 2.562984,2.39319 2.654402,-1.59297 z m 90.604986,1.59996 c 1.8939,-1.87938 0.51109,-5.89407 -2.03015,-5.89407 -0.34693,0 -3.85019,3.47826 -3.85019,3.82272 0,2.55055 3.98344,3.95372 5.88034,2.07135 z m 9.74691,0.1252 c 2.0119,-1.8179 0.62467,-6.01927 -1.98747,-6.01927 -0.34694,0 -3.8502,3.47826 -3.8502,3.82272 0,2.45951 3.91595,3.93297 5.83767,2.19655 z m 44.53314,-0.16588 c 2.09921,-2.11541 2.10081,-2.08755 -0.244,-4.23058 -2.97148,-2.71577 -6.79379,1.33934 -3.95702,4.19802 2.23573,2.25299 1.99942,2.25116 4.20102,0.0326 z m -129.406791,-2.8845 c 1.86438,-1.88404 -0.280046,-6.39471 -2.220932,-4.6716 -2.236618,1.98567 -2.458117,3.1016 -0.96235,4.84844 1.414468,1.65189 1.371259,1.65429 3.183282,-0.17684 z m -28.654528,-2.03772 c 2.055508,-2.06931 2.06891,-2.44969 0.137393,-3.89947 -0.450243,-0.33796 -4.229163,-0.23713 -4.648473,0.12403 -1.800808,1.55104 -1.7964,1.60806 0.290683,3.76047 2.328551,2.40145 1.851532,2.39976 4.220397,0.015 z m 9.589607,0.2004 c 2.983195,-2.96033 -0.183875,-6.37056 -3.929369,-4.23105 -2.129975,1.21669 -2.144681,1.96598 -0.07939,4.04514 2.338286,2.354 1.846899,2.33121 4.008763,0.18591 z m 89.164582,0 c 3.22839,-3.20366 -1.02742,-6.8394 -4.54309,-3.88116 -1.63072,1.37216 -1.60584,1.54071 0.54746,3.70848 2.32314,2.33874 1.83414,2.31761 3.99563,0.17268 z m 10.00128,-0.21791 c 2.73933,-2.76564 -0.62212,-6.02324 -4.14107,-4.01314 -2.12997,1.21669 -2.14468,1.96598 -0.0794,4.04514 2.34868,2.36447 1.843,2.3683 4.22046,-0.032 z m 9.61944,0.17614 c 2.00461,-2.02009 2.057,-2.29625 0.68505,-3.61066 -3.18962,-3.05585 -7.84277,0.33824 -4.74255,3.4593 2.35081,2.3666 1.87678,2.34892 4.0575,0.15136 z M 42.727513,196.85272 c 1.835193,-1.84937 1.835193,-1.84937 0.799103,-2.91042 -1.474199,-1.50972 -4.615028,-1.61606 -5.941144,-0.20116 -2.627069,2.80296 2.418496,5.85615 5.142041,3.11158 z m 85.851587,-2.77234 c 1.39888,-1.41648 1.41867,-1.45782 0.94713,-1.97886 -0.64842,-0.7165 -0.10947,-0.93275 1.82664,-0.73293 1.57163,0.16221 1.99933,-0.0781 1.99308,-1.11995 -0.008,-1.40702 0.13654,-1.38276 -8.31548,-1.39159 -8.40902,-0.009 -9.13445,0.0966 -7.82005,1.13648 1.59472,1.26161 1.99534,1.35405 4.53167,1.04566 1.3063,-0.15883 2.50257,-0.20999 2.65838,-0.1137 0.15582,0.0963 0.83421,0.32697 1.50756,0.5126 1.22426,0.33751 1.22426,0.33751 0.16593,0.36958 -2.0583,0.0624 -2.23502,0.56351 -0.79365,2.25065 1.53994,1.80252 1.54044,1.80252 3.29879,0.0221 z m -45.255421,-3.03703 c 2.847577,-0.15974 4.843383,-0.15174 5.789731,0.0232 1.923541,0.35559 5.237374,-0.98986 4.675845,-1.89843 -0.246081,-0.39817 -16.60665,-0.33864 -17.00717,0.0619 -1.001892,1.00189 -0.273671,2.42053 1.136033,2.2131 0.583005,-0.0858 3.015507,-0.26567 5.405561,-0.39975 z m -10.281283,-4.52141 c 0.638779,-0.34187 0.811153,-11.02692 0.181043,-11.2224 -0.783106,-0.24295 -3.597612,-0.33391 -3.932852,-0.1271 -0.597092,0.36835 -0.686944,10.60382 -0.09825,11.19251 0.497408,0.49741 3.021659,0.60034 3.850062,0.15699 z m 67.385204,0.10713 c 1.0192,-0.27314 0.92055,-11.33591 -0.10338,-11.5929 -3.46194,-0.86889 -4.06504,0.0454 -4.05975,6.15449 0.005,5.37068 -0.0263,5.27351 1.72085,5.4082 0.72479,0.0559 1.43687,0.12142 1.58239,0.14567 0.14552,0.0242 0.53247,-0.0277 0.85989,-0.11546 z M -6.1455113,184.28229 c 0.072191,-2.11667 0.072191,-2.11667 -0.7472077,-2.57863 -1.0081445,-0.56838 -0.9463923,-1.24848 0.1458497,-1.60631 1.140126,-0.3735 1.1848611,-0.5233 1.1601998,-3.88485 -0.018609,-2.53662 -0.3800726,-5.52296 -0.4723678,-3.90261 -0.02834,0.49755 -0.6832278,0.634 -0.9524153,0.19844 -0.089937,-0.14552 -0.5632916,-0.26458 -1.0518996,-0.26458 -0.4886079,0 -0.9489015,-0.12204 -1.0228746,-0.2712 -0.073973,-0.14916 -0.1041962,-0.11939 -0.067163,0.0661 0.037034,0.18554 0.4745883,0.39687 0.9723437,0.46963 1.3254835,0.19376 1.4232483,2.46618 0.1112598,2.58609 -2.1176327,0.19356 -1.9543427,-0.30759 -1.8080768,5.54914 0.1612238,6.45572 -0.019105,5.93049 2.0030892,5.83426 1.6570708,-0.0789 1.6570708,-0.0789 1.7292621,-2.19553 z m 139.8201913,1.64266 c 1.93296,-2.94245 1.16381,-3.02331 -28.76739,-3.02433 -28.146786,-9.6e-4 -28.574997,0.0257 -28.574997,1.77854 0,1.45521 0,1.45521 5.423958,1.5875 11.008571,0.26851 51.693479,7.3e-4 51.918429,-0.34171 z m 86.24099,-4.94621 c 0.19887,-6.01437 0.25287,-5.81396 -1.56828,-5.82052 -1.12448,-0.004 -1.12448,-0.004 -1.12448,-1.32697 0,-1.28528 0.022,-1.32292 0.77211,-1.32292 1.50523,0 1.6133,-0.15294 1.56242,-2.21112 -0.0467,-1.88992 -0.0467,-1.88992 -0.19844,-0.0378 -0.15171,1.85209 -0.15171,1.85209 -1.20849,1.98438 -0.89678,0.11226 -1.07704,0.24135 -1.19063,0.8526 -0.28315,1.52382 -0.91754,0.36994 -1.08127,-1.96673 -0.10985,-1.56783 -0.16643,-0.74711 -0.19843,2.87843 -0.0493,5.58582 -6.5e-4,5.90861 0.89068,5.90861 1.44893,0 1.73678,1.69883 0.3219,1.89976 -0.59716,0.0848 -1.04064,3.25435 -0.61174,4.37205 1.18531,3.08888 3.46847,-0.18368 3.63465,-5.20973 z m -209.750846,4.06899 c 0.230183,-0.0883 0.418514,-0.32645 0.418514,-0.52916 0,-0.53563 0.350071,-0.45153 0.743622,0.17865 0.389663,0.62395 1.342012,0.53456 2.93608,-0.27557 0.878536,-0.44649 0.929251,-0.44238 1.984375,0.16105 1.549789,0.88633 5.009341,0.79232 5.253872,-0.14276 0.315232,-1.20545 -0.220099,-1.61286 -2.119302,-1.61286 -2.052418,0 -3.01654,-0.45622 -2.790534,-1.32046 0.07633,-0.29188 -0.04989,-0.81863 -0.28048,-1.17055 -0.782506,-1.19426 1.871939,-3.09477 3.686401,-2.63937 0.465363,0.1168 0.785061,-0.0145 1.217379,-0.49981 0.586283,-0.65821 0.586283,-0.65821 1.747125,0.30318 2.470414,2.04595 2.565291,3.17575 0.420638,5.00894 -2.182463,1.86552 -1.099981,3.22659 1.400646,1.76112 1.149439,-0.67361 1.149439,-0.67361 2.11243,0.0609 1.500584,1.14455 5.7674,1.25905 7.83851,0.21035 1.433042,-0.72561 1.433042,-0.72561 2.621156,-0.0293 1.859115,1.08951 5.922886,1.03816 7.713594,-0.0975 1.421449,-0.90146 1.818575,-0.9668 2.306048,-0.37943 0.751157,0.90509 1.776669,1.17318 4.487693,1.17318 2.800024,0 3.364107,-0.15726 4.558026,-1.27075 0.725822,-0.67692 0.725822,-0.67692 1.326527,-0.11259 2.007652,1.88609 8.398691,2.03274 8.398691,0.19272 0,-1.00668 -0.500724,-1.19063 -3.241055,-1.19063 -3.803428,0 -4.431861,-0.4149 -4.431861,-2.92596 0,-1.93839 0.593452,-2.23341 4.492557,-2.23341 3.048068,0 3.048068,0 3.048068,-1.05834 0,-1.40466 -5.924408,-1.80522 -7.850246,-0.53076 -1.021921,0.67627 -1.021921,0.67627 -2.005069,0.008 -0.922055,-0.62655 -1.189251,-0.66806 -4.299893,-0.66806 -3.110642,0 -3.377838,0.0415 -4.299893,0.66806 -0.983148,0.66807 -0.983148,0.66807 -2.028024,-0.0234 -1.654918,-1.09517 -7.294539,-1.12733 -8.421098,-0.048 -0.938386,0.89903 -1.194565,0.9027 -2.334229,0.0334 -1.27505,-0.97253 -6.362194,-1.06362 -7.855569,-0.14066 -1.138862,0.70385 -1.376944,0.70647 -2.333127,0.0256 -1.574832,-1.12137 -6.88392,-0.86922 -8.554973,0.40633 -1.207031,0.92134 -1.207031,0.92134 -2.18061,0.0661 -1.214154,-1.06652 -6.0812558,-1.53872 -8.2686285,-0.8022 -0.937747,0.31575 -1.2986374,0.32977 -1.8520832,0.072 -0.8591973,-0.40026 -6.8619607,-0.35783 -7.3557635,0.052 -1.5059726,1.24984 -0.3740766,1.9976 2.82441741,1.86587 3.16749959,-0.13046 3.16749959,-0.13046 3.98991419,0.74994 0.8189647,0.87671 0.8432917,1.04644 0.3697815,2.5801 -0.1824455,0.59092 -0.1434716,0.60776 1.2246578,0.52916 1.6035383,-0.0921 1.9182658,-0.57139 1.5301512,-2.33014 -0.3648694,-1.65341 4.6775121,-2.31161 6.3653071,-0.83088 2.083484,1.82786 0.214801,5.20268 -2.6905413,4.85908 -0.9771188,-0.11556 -0.9921874,-0.10351 -0.9921874,0.79355 0,1.22026 0.2496694,1.45585 1.1689857,1.10307 z m 20.360197,-2.16469 c -4.336111,-0.15387 -4.925734,-4.8581 -0.660876,-5.27271 0.818941,-0.0796 1.678859,-0.30936 1.910929,-0.51054 0.930717,-0.80686 2.448189,1.23687 2.491029,3.3549 0.04895,2.42039 -0.159127,2.55546 -3.741082,2.42835 z m 7.045522,-1.1462 c -1.424905,-1.46826 -1.398381,-1.71617 0.330631,-3.09021 0.700155,-0.55642 1.411868,-0.83805 2.44361,-0.96695 1.026487,-0.12825 1.56734,-0.34123 1.834243,-0.72229 0.461387,-0.65872 2.694799,0.96366 2.980334,2.16495 0.08655,0.36412 0.270142,0.80551 0.40799,0.98088 0.278864,0.35475 -0.85791,2.03723 -1.670187,2.47195 -1.470125,0.78678 -5.233446,0.28812 -6.326621,-0.83833 z m 10.885705,0.46869 c -0.484902,-0.51615 -0.538697,-0.74047 -0.317253,-1.32291 0.17949,-0.4721 0.178958,-0.93205 -0.0016,-1.40702 -0.389926,-1.02559 0.518194,-1.59785 2.936766,-1.85064 1.379071,-0.14414 1.656759,-0.26237 1.857731,-0.79097 0.24352,-0.64051 0.778555,-0.85785 0.778555,-0.31627 0,0.16788 0.458583,0.73343 1.019074,1.25677 1.413701,1.32003 1.724005,3.41961 0.652198,4.41293 -1.037973,0.96196 -6.026488,0.97501 -6.925443,0.0181 z m 103.793552,2.01429 c 1.21358,-0.85622 1.21358,-0.85622 2.45021,0.0877 1.68599,1.28695 6.42554,1.31091 8.08884,0.0409 1.16229,-0.88747 0.97448,-0.89247 2.48605,0.0661 2.06226,1.30785 5.91051,1.1516 5.91051,-0.23997 0,-1.10442 -0.4524,-1.34753 -2.50758,-1.34753 -2.38188,0 -3.04867,-0.40494 -3.04867,-1.85147 0,-0.56524 -0.11906,-1.1013 -0.26458,-1.19124 -1.26207,-0.78 1.11536,-2.24896 3.63984,-2.24896 1.85942,0 1.93986,-0.0264 2.21456,-0.7276 0.27013,-0.6895 0.30097,-0.70073 0.58877,-0.21436 0.16704,0.28229 0.64505,0.83632 1.06225,1.23118 1.85638,1.75697 1.93079,2.83419 0.30058,4.35136 -2.22893,2.07438 -1.40319,3.75911 1.03237,2.1063 1.14288,-0.77558 1.5487,-0.81999 2.0433,-0.2236 1.20189,1.44926 6.45278,1.66853 8.52259,0.35589 1.50089,-0.95184 1.38292,-0.94334 2.39889,-0.17285 1.08976,0.82644 3.37824,1.14741 3.96899,0.55666 0.86414,-0.86413 0.16619,-1.96728 -1.25094,-1.97719 -2.19701,-0.0154 -3.32665,-3.94558 -1.41778,-4.93269 1.25994,-0.65155 5.80694,-0.39991 6.57046,0.36361 1.46519,1.46519 0.6664,4.57496 -1.17515,4.57496 -1.59938,0 -2.29304,1.03248 -1.33638,1.98914 0.54735,0.54735 2.436,0.33771 3.72907,-0.41391 0.85902,-0.49933 0.86434,-0.49894 2.08993,0.15271 2.33787,1.24305 4.95656,0.86321 4.80755,-0.69735 -0.084,-0.87932 -0.11372,-0.89976 -1.40869,-0.96744 -2.09858,-0.10967 -2.4722,-0.27276 -3.17484,-1.38581 -1.29652,-2.05381 0.33767,-3.70388 3.66976,-3.70541 1.72295,-7.9e-4 2.33354,-0.11232 3.06882,-0.56056 1.45032,-0.88413 3.27307,1.56164 2.28626,3.06771 -1.00036,1.52673 -0.34394,2.20583 1.35792,1.40485 1.18355,-0.55703 1.52543,-1.31897 1.34375,-2.99469 -0.0849,-0.78327 -0.0835,-0.78411 1.49334,-0.86508 1.76101,-0.0904 2.25811,-0.36382 2.25811,-1.24187 0,-1.28582 -0.0966,-1.29703 -10.31875,-1.19756 -4.07526,0.0396 -4.10816,0.0448 -5.23325,0.81717 -1.3808,0.94792 -1.24834,0.94885 -2.3478,-0.0165 -1.22171,-1.07268 -7.32035,-1.2261 -9.09482,-0.22879 -1.00521,0.56496 -1.00521,0.56496 -1.91934,0 -1.32089,-0.81636 -7.62565,-0.84243 -8.65687,-0.0358 -0.83744,0.65506 -1.25986,0.65506 -2.24896,0 -1.30976,-0.86742 -7.72213,-0.78319 -9.26624,0.12172 -1.11065,0.65089 -1.11065,0.65089 -1.99288,0 -1.26953,-0.93662 -6.86023,-0.98474 -8.48246,-0.073 -1.02821,0.57788 -1.02821,0.57788 -2.0699,-0.008 -2.10024,-1.1804 -8.35102,-0.71609 -8.35102,0.62031 0,1.44661 4.27791,1.80997 5.56512,0.47269 0.51057,-0.53042 0.74737,-0.63729 0.84402,-0.3809 0.0739,0.196 0.49401,0.76601 0.93361,1.26667 2.50964,2.85833 1.01574,4.6572 -4.03546,4.85925 -3.51222,0.14049 -3.94926,0.40684 -3.32725,2.02776 0.33577,0.875 6.76973,0.377 8.20414,-0.63502 z m 3.21643,-2.20679 c -1.91789,-2.27927 -0.71067,-4.29748 2.65515,-4.43884 3.38517,-0.14216 4.4595,0.31984 4.16522,1.79122 -0.0826,0.41316 -0.0133,1.0071 0.15411,1.31987 1.0724,2.00379 -5.37314,3.23084 -6.97448,1.32775 z m 21.98639,0.072 c -1.90045,-1.98365 -0.74522,-4.33826 2.21039,-4.50527 1.50299,-0.0849 1.85207,-0.19106 1.98277,-0.60286 0.20719,-0.6528 0.82366,-0.63888 1.17983,0.0266 0.15496,0.28954 0.6354,0.70931 1.06765,0.93284 0.54238,0.28047 0.7859,0.60442 0.7859,1.04545 0,0.35148 0.11906,0.71264 0.26459,0.80257 0.48691,0.30093 0.27226,0.91602 -0.69225,1.98362 -1.30177,1.4409 -5.5331,1.6382 -6.79888,0.31701 z M 91.148959,177.3806 c 0,-1.74677 0.108479,-2.53515 0.396875,-2.88431 0.306609,-0.37122 0.430709,-1.56964 0.545634,-5.26912 0.14876,-4.7886 0.14876,-4.7886 0.198438,-0.0188 0.03843,3.68966 0.137096,4.89459 0.435714,5.32092 0.2482,0.35436 0.413523,1.3759 0.463021,2.86104 0.06832,2.05001 7.336499,3.61143 9.780279,2.10109 0.97565,-0.60299 0.0632,-1.62936 -1.58543,-1.7833 -2.018367,-0.18848 -2.484243,-0.50315 -2.376688,-1.60532 0.100445,-1.02931 0.823572,-1.16564 6.331118,-1.19355 4.93957,-0.025 4.57323,0.42692 4.59741,-5.67178 0.0496,-12.50512 0.14644,-16.42971 0.39592,-16.04366 0.15395,0.23822 0.2581,4.42226 0.26053,10.46662 0.005,12.43372 -0.90162,10.97823 6.85329,11.0022 7.48435,0.0231 6.63548,1.13187 6.64046,-8.67336 0.004,-7.23244 0.0476,-8.02817 0.47258,-8.55295 0.55965,-0.69114 3.06715,-1.60217 3.55605,-1.29199 0.18757,0.11901 1.55725,0.2182 3.04372,0.22043 3.2306,0.005 3.31402,-0.0724 3.19581,-2.95844 -0.0927,-2.26461 -0.0529,-2.24241 -4.44327,-2.47382 -1.52797,-0.0805 -4.32594,-0.2492 -6.21771,-0.37481 -5.27939,-0.35054 -12.66835,-0.3324 -13.03275,0.032 -0.23199,0.23199 -0.40437,0.22488 -0.71066,-0.0293 -0.86223,-0.71559 -21.469177,0.0289 -29.27293,1.05762 -2.243721,0.29576 -4.258087,0.54388 -4.476369,0.55136 -1.007606,0.0345 -5.450737,0.86499 -5.669937,1.05975 -1.374627,1.22136 -0.349372,18.95634 1.106885,19.14703 1.492206,0.19539 3.504719,0.87925 3.504719,1.19091 0,0.12162 0.416719,0.47867 0.926042,0.79344 0.926041,0.57233 0.926041,0.57233 0.926041,2.92474 0,2.3524 0,2.3524 3.770313,2.43738 10.781335,0.24301 10.384895,0.33242 10.384895,-2.34196 z M 133.35,177.00625 c 0,-2.38125 0,-2.38125 -1.20802,-2.38125 -2.12051,0 -3.01706,-1.30045 -2.66539,-3.86617 0.31438,-2.2937 1.15399,-3.00742 3.54268,-3.01152 0.8599,-0.001 0.8599,-0.001 0.8599,-2.92929 0,-1.61029 0.12918,-3.1692 0.28708,-3.46423 0.83215,-1.55489 0.2732,-1.83183 -3.53519,-1.75153 -3.8336,0.0808 -4.29307,0.34241 -3.29364,1.87502 0.3036,0.46557 0.35523,1.49358 0.26167,5.21022 -0.29464,11.70411 -0.0593,12.7 3.00064,12.7 2.75027,0 2.75027,0 2.75027,-2.38125 z m 64.34888,-2.8066 c -0.0424,-0.27538 -0.14833,-1.01664 -0.23533,-1.64723 -0.10585,-0.76724 -0.23216,-1.02983 -0.38182,-0.79375 -0.1699,0.26803 -0.22461,0.23851 -0.22768,-0.12287 -0.002,-0.26161 -0.29152,-0.74207 -0.64287,-1.06769 -1.40496,-1.30207 -1.07637,-2.96946 1.10061,-5.58507 0.64266,-0.77214 0.64346,-0.78004 0.0994,-0.9813 -0.59449,-0.21992 -0.5938,-0.1786 -0.13078,-7.83106 0.17346,-2.86673 0.14007,-2.83117 2.27872,-2.42718 2.34858,0.44364 2.26035,0.23834 2.5496,5.93254 0.14045,2.7649 0.38134,5.6224 0.53532,6.35 0.15398,0.7276 0.35145,1.91823 0.43883,2.64583 0.0874,0.72761 0.25983,1.56105 0.38322,1.85209 0.12339,0.29104 0.27561,0.70776 0.33826,0.92604 0.0626,0.21828 0.195,-3.29406 0.29411,-7.80521 0.0991,-4.51115 0.31242,-9.24995 0.47402,-10.53068 0.38589,-3.05821 2.1132,-2.26116 -12.68766,-5.85459 -5.1755,-1.25654 -6.44821,-0.83878 -5.1029,1.67497 0.18585,0.34727 0.28624,4.48803 0.29582,12.20191 0.0165,13.24895 -0.0781,12.43026 1.43567,12.43026 1.13183,0 1.13183,0 1.31362,-1.45493 0.2063,-1.65124 0.18251,-1.63748 3.08538,-1.78438 1.75099,-0.0886 1.75099,-0.0886 1.61742,1.57536 -0.13356,1.66395 -0.13356,1.66395 0.70587,1.66395 0.54476,0 1.04508,0.22169 1.42528,0.63154 0.6747,0.7273 1.14983,0.72797 1.03787,10e-4 z m -5.85387,-11.24593 c -2.31142,-0.39241 -2.23954,-0.1872 -2.02757,-5.78824 0.2155,-5.69453 0.0795,-5.41292 2.38131,-4.93042 2.3497,0.49254 2.19865,0.10933 2.30725,5.85348 0.10839,5.73313 0.30747,5.36913 -2.66099,4.86518 z m -18.01376,10.65436 c 9.12812,-0.17371 9.12812,-0.17371 9.20217,-3.54714 0.088,-4.00824 -8.50908,-5.37572 -11.76972,-1.87214 -1.67541,1.80024 -2.11821,1.74964 -0.61437,-0.0702 0.58589,-0.709 1.06525,-1.43098 1.06525,-1.60438 0,-0.97752 2.18121,-2.70336 2.78419,-2.20293 0.26718,0.22175 1.50458,0.25355 4.481,0.11518 5.95332,-0.27677 6.63524,-8.32229 0.70538,-8.32229 -3.93285,0 -4.98781,0.15532 -5.1482,0.75796 -0.0633,0.23796 -0.12714,-0.10312 -0.14179,-0.75796 -0.0441,-1.97025 -0.0495,-1.96781 4.65131,-2.11667 4.17748,-0.13229 4.17748,-0.13229 4.35205,-2.77813 0.096,-1.4552 0.25885,-2.97393 0.36186,-3.37495 0.39662,-1.54397 0.57773,-1.51984 -11.40743,-1.51984 -12.91479,0 -11.53542,-0.55053 -11.42784,4.56106 0.0818,3.88734 -0.0172,3.809 4.09388,3.23819 2.61283,-0.36278 4.27849,0.58226 2.92528,1.65971 -0.56982,0.4537 -4.14633,0.57491 -4.92806,0.16702 -1.75475,-0.91561 -1.96069,-0.56271 -2.01287,3.44933 -0.0666,5.12284 0.20766,6.1997 1.33176,5.22832 0.64556,-0.55785 6.73365,-0.0232 6.73365,0.59138 0,1.46525 -2.98093,1.93916 -6.80552,1.08194 -1.30248,-0.29194 -1.50477,0.41732 -1.27167,4.45873 0.19095,3.31049 0.19095,3.31049 1.95125,3.17101 0.96817,-0.0767 5.86797,-0.21765 10.88844,-0.31319 z m -5.55631,-4.02339 c -6e-5,-0.33867 0.79309,-3.31052 1.63298,-6.11866 0.41641,-1.39226 0.17211,-1.80561 -1.06715,-1.80561 -1.34344,0 -1.36398,-0.0954 -0.79773,-3.70417 0.26259,-1.67349 0.57103,-3.63802 0.68542,-4.36563 0.20799,-1.32291 0.20799,-1.32291 3.18456,-1.39772 3.24081,-0.0815 3.26875,-0.0667 2.70075,1.42724 -0.33581,0.88325 -1.31169,4.49071 -1.31169,4.84882 0,0.14182 0.85368,0.29284 1.89706,0.33559 2.44883,0.10035 2.44773,0.17084 -0.0466,2.98816 -1.15954,1.30968 -3.08003,3.57187 -4.26776,5.02708 -2.74752,3.36628 -2.60977,3.22035 -2.60984,2.7649 z m -9.26036,0.54239 c 0,-3.57345 -7.45508,-5.43873 -10.58145,-2.64751 -1.04848,0.93608 -1.35247,0.85356 -0.56121,-0.15236 0.30763,-0.39109 0.55933,-0.84506 0.55933,-1.00883 0,-0.32178 1.22403,-1.73439 1.53206,-1.76808 0.10325,-0.0113 2.11443,-0.0429 4.46929,-0.0703 5.11402,-0.0594 4.49859,0.5174 4.63155,-4.34096 0.10637,-3.88621 -5.73361,-6.45383 -7.83977,-3.44686 -0.39804,0.56827 -0.41188,0.54667 -0.41188,-0.64256 0,-1.96717 0.21412,-2.06214 4.6491,-2.06214 3.81756,0 3.81756,0 3.81756,-2.24516 0,-1.23484 0.14129,-2.77343 0.31398,-3.4191 0.56298,-2.10489 1.0878,-2.00922 -10.99585,-2.00461 -12.62452,0.005 -11.31154,-0.49112 -11.21994,4.23804 0.0789,4.0756 0.62336,4.83802 2.84392,3.9827 1.9438,-0.74872 4.37352,-0.46735 4.37352,0.50646 0,1.00637 -0.11772,1.0216 -5.68854,0.73605 -1.45521,-0.0746 -1.45521,-0.0746 -1.52806,4.25585 -0.0851,5.05817 -0.0352,5.19659 1.77763,4.93035 4.72535,-0.694 7.45985,-0.16917 6.1167,1.17398 -0.61415,0.61415 -4.92676,0.82078 -5.48474,0.26281 -1.1935,-1.1935 -2.33654,-0.1203 -2.41455,2.267 -0.10808,3.30786 0.31212,4.30497 1.41396,3.35522 0.65641,-0.56582 4.64016,0.0575 5.18959,0.81197 2.19372,3.01245 15.0378,0.69609 15.0378,-2.71198 z m -13.72246,-2.42929 c 1.72937,-6.18563 1.72434,-6.03737 0.20479,-6.03737 -1.39435,0 -1.3925,0.0132 -0.70332,-5.02709 0.59693,-4.36562 0.59693,-4.36562 3.60506,-4.44074 3.4791,-0.0869 3.20799,-0.56403 2.05684,3.62003 -0.81783,2.97252 -0.833,2.93632 1.23252,2.94143 2.61991,0.006 2.61345,0.0882 -0.27197,3.4439 -1.42335,1.65532 -3.36282,3.95813 -4.30992,5.11736 -2.25176,2.75609 -2.49176,2.80669 -1.814,0.38248 z M 12.984678,165.50896 c 9.157624,-1.27762 21.895134,-1.81947 38.2122,-1.62552 16.174559,0.19225 16.458068,0.0598 14.388225,-6.72094 -1.700313,-5.57019 -1.803385,-6.03624 -1.917829,-8.6717 -0.206535,-4.75611 0.789751,-7.65927 3.018684,-8.79639 1.242447,-0.63385 1.462796,-1.10289 1.827628,-3.89035 0.148088,-1.13145 0.338878,-2.30298 0.423978,-2.6034 0.247933,-0.87525 -4.417562,-1.98979 -11.787562,-2.81593 -6.559407,-0.73528 -23.824875,-0.31576 -30.29479,0.7361 -8.684385,1.41189 -7.819526,0.84821 -9.103636,5.93334 -0.569584,2.25557 -1.649431,6.1251 -2.399661,8.59895 -2.018069,6.65451 -5.8269101,19.72989 -5.8269101,20.00322 0,0.31351 0.2248468,0.30393 3.4596731,-0.14738 z m 57.791365,-15.23642 c 13.739819,-2.51116 33.570607,-3.47387 53.861917,-2.6148 3.70022,0.15666 7.38251,0.30549 8.18287,0.33073 1.45521,0.0459 1.45521,0.0459 1.60426,-1.68539 0.25687,-2.98355 0.17654,-2.96207 10.66273,-2.85105 7.97364,0.0844 7.97364,0.0844 8.05891,-0.51639 0.22585,-1.59139 -9.85423,-2.64412 -31.19975,-3.2584 -23.312798,-0.67089 -53.277064,1.27994 -54.804906,3.5681 -0.242896,0.36377 -0.266861,7.15001 -0.0261,7.39077 0.247471,0.24747 0.399253,0.23239 3.660069,-0.36357 z m 95.051557,-6.91939 c 0.90951,0.01 2.18943,0.0168 2.84427,0.0153 0.65485,-0.001 2.14313,0.004 3.30729,0.0116 3.75095,0.0251 5.09032,0.0182 8.86354,-0.0456 4.097,-0.0693 6.08235,-5.02798 2.38125,-5.94756 -6.36987,-1.58268 -14.70237,-1.70412 -21.31129,-0.31061 -3.60722,0.7606 -3.22241,6.8265 0.40921,6.4506 1.01865,-0.10544 2.59623,-0.18364 3.50573,-0.17377 z m -91.479682,-4.31721 c 12.021702,-1.86521 58.847432,-2.55423 69.722842,-1.02594 5.30138,0.74499 5.39032,0.64571 3.81828,-4.2619 -10.41367,-32.50933 -57.783295,-35.748786 -73.527509,-5.02831 -2.103491,4.10438 -3.782053,10.73871 -2.709977,10.71088 0.100552,-0.003 1.313916,-0.18024 2.696364,-0.39473 z m 106.341412,-6.02735 c 1.00412,-2.64104 0.48575,-3.75442 -1.831,-3.93265 -2.72472,-0.20963 -2.79759,-0.15256 -2.68395,2.10212 0.10612,2.1055 0.0119,1.97407 1.57059,2.19181 2.36398,0.33024 2.69698,0.28938 2.94436,-0.36128 z m -12.72,-2.30442 c -0.16959,-1.13875 -0.4294,-1.86821 -0.76898,-2.15908 -0.28207,-0.24161 -0.51285,-0.56903 -0.51285,-0.7276 0,-0.33889 -6.24131,-0.41365 -6.44922,-0.0773 -0.32096,0.51931 2.33041,2.43476 3.3702,2.43476 0.40327,0 0.72073,0.18472 0.81207,0.4725 0.79803,2.51437 3.92223,2.56426 3.54878,0.0567 z m 6.94249,0.92604 c 0.085,-0.72761 0.24147,-1.62941 0.34774,-2.00401 0.25012,-0.88174 -0.1537,-1.2104 -1.83316,-1.49197 -2.07923,-0.34858 -1.71322,-0.84515 1.46318,-1.9851 7.02364,-2.52066 9.07247,-4.88248 5.29167,-6.10006 -2.94802,-0.94939 -3.01479,-0.91554 -3.22666,1.63576 -0.33769,4.06638 -1.92604,4.02543 -1.93039,-0.0498 -0.002,-2.12015 -5.14689,-3.76884 -5.87113,-1.88151 -0.19986,0.52083 1.43983,12.18207 1.81115,12.88058 0.66572,1.25234 3.77645,0.46125 3.9476,-1.00392 z M 22.733666,130.43175 c 4.086328,-0.79336 11.769911,-1.5532 17.405625,-1.72126 2.734694,-0.0815 5.58314,-0.18572 6.329881,-0.23149 3.598207,-0.22053 19.427568,0.7027 22.779309,1.32857 0.843077,0.15743 0.864834,0.13521 1.750465,-1.7871 0.493227,-1.07058 1.203659,-2.29632 1.578737,-2.72387 1.729904,-1.97189 2.04711,-3.00386 1.635415,-5.32048 -0.623236,-3.50697 -1.022741,-12.22019 -0.760676,-16.59034 0.288393,-4.809178 0.07227,-5.225361 -2.713555,-5.225361 -0.494226,0 -1.759607,-0.229235 -2.811958,-0.509412 -1.052351,-0.280176 -3.520709,-0.766644 -5.48524,-1.08104 -1.964531,-0.314396 -4.107656,-0.67988 -4.7625,-0.812188 -4.908964,-0.991829 -22.873785,-0.49262 -29.368748,0.816103 -7.517943,1.514852 -7.201152,1.244577 -6.827316,5.824808 0.545379,6.68197 0.04453,15.28911 -1.376734,23.65926 -0.418569,2.46506 -0.701395,4.57842 -0.628502,4.69636 0.175244,0.28355 0.09097,0.2919 3.255797,-0.32256 z m 90.340844,-26.83411 c -0.0267,-0.79855 -0.20637,-1.18182 -0.76188,-1.62476 -0.62666,-0.49969 -0.70162,-0.70236 -0.54308,-1.46848 0.73798,-3.566187 0.41004,-6.312731 -0.75375,-6.312731 -1.15518,0 -1.30623,0.53774 -1.1399,4.057976 0.1398,2.958835 0.11038,3.273275 -0.33218,3.549655 -0.56538,0.35308 -1.18218,2.02295 -0.96055,2.60051 0.41152,1.0724 4.52934,0.33695 4.49134,-0.80217 z M 22.564231,96.748879 c 4.552066,-1.888449 17.872116,-3.304727 27.838897,-2.960022 3.201458,0.110724 6.951926,0.237784 8.334374,0.282356 3.653822,0.117804 11.377721,1.36717 12.038541,1.947274 0.551634,0.484253 2.734278,1.215641 2.958535,0.991383 0.07089,-0.07089 0.479931,-2.192502 0.908978,-4.714692 0.429047,-2.52219 0.972407,-5.300175 1.207467,-6.1733 0.866319,-3.217915 0.836555,-3.411592 -0.619498,-4.031252 -11.125623,-4.734785 -40.447323,-5.033788 -53.99227,-0.550577 -3.19421,1.057245 -3.128319,0.941936 -2.335107,4.086411 0.362402,1.436647 0.969498,4.513742 1.349101,6.83799 0.852605,5.220357 0.706752,4.949952 2.310982,4.284429 z m 61.074136,-9.437773 c 3.437904,-0.641616 6.698841,-3.18907 7.83446,-6.120302 0.322285,-0.831875 0.689756,-1.384986 0.888194,-1.336892 10.550279,2.557004 20.872199,-7.458892 16.262619,-15.780482 -2.76677,-4.994806 -12.100708,-5.999651 -14.441086,-1.554653 -2.616044,4.968557 -8.799396,8.842667 -15.683405,9.82626 -2.120044,0.302914 -2.120044,0.302914 -3.155456,2.012795 -0.569476,0.940434 -1.324149,2.014051 -1.677051,2.385816 -1.068491,1.125601 -0.857142,1.457672 1.40888,2.213636 4.211923,1.405131 4.904332,2.337516 4.257242,5.732726 -0.569088,2.985947 0.115996,3.403002 4.305603,2.621096 z M 69.614363,76.581911 c 2.03234,-1.050964 3.5528,-2.989175 4.18412,-5.333721 0.336973,-1.25142 0.345555,-1.254642 4.021931,-1.510183 C 89.154055,68.950219 97.020068,57.706695 92.471876,48.795495 88.632898,41.273847 77.15421,41.076602 69.247929,48.396424 c -1.558462,1.44286 -1.558462,1.44286 -2.661007,1.123674 -8.694974,-2.517186 -18.168169,3.982806 -18.168169,12.466011 0,1.020762 0,1.020762 -0.818019,0.438281 -7.6275,-5.431259 -20.87727,2.886936 -19.693263,12.363413 0.245582,1.965571 0.336089,2.000602 3.999441,1.548016 4.204158,-0.5194 10.826451,-0.927476 15.069862,-0.928628 3.523305,-9.57e-4 4.087812,-0.147913 4.087812,-1.064165 0,-1.812095 2.15882,-5.744905 3.869951,-7.050048 1.274142,-0.971836 1.302633,-0.687206 0.08463,0.845437 -4.096562,5.154793 -3.277116,7.332325 2.924588,7.771581 2.546615,0.180372 5.582708,0.481445 6.746875,0.669051 2.959558,0.476934 4.005808,0.477542 4.923736,0.0029 z"
       id="path1" /></g></svg>
